<?xml version="1.0" encoding="UTF-8"?>
<svg version="1.1" xmlns="http://www.w3.org/2000/svg" width="193" height="179">
<path d="M0 0 C63.69 0 127.38 0 193 0 C193 59.07 193 118.14 193 179 C129.31 179 65.62 179 0 179 C0 119.93 0 60.86 0 0 Z " fill="#FEFEFE" transform="translate(0,0)"/>
<path d="M0 0 C1.23391983 -0.00426498 2.46783966 -0.00852997 3.739151 -0.01292419 C5.11920169 -0.01257463 6.49925236 -0.01211307 7.87930298 -0.0115509 C9.32284126 -0.01454083 10.76637874 -0.01794296 12.20991516 -0.02172852 C16.14175442 -0.03059049 20.07357193 -0.03290757 24.00542021 -0.0335443 C27.28333792 -0.03449173 30.56125053 -0.03816818 33.83916628 -0.0417164 C41.57113504 -0.04986958 49.30309214 -0.05229987 57.0350647 -0.05158997 C65.01995346 -0.05098918 73.00477466 -0.06153908 80.98964632 -0.07733363 C87.83636907 -0.09039594 94.6830697 -0.0957744 101.52980483 -0.09513456 C105.62283361 -0.09487915 109.71580241 -0.09775367 113.80881882 -0.10831261 C117.65831789 -0.11797143 121.50769939 -0.11808809 125.35720253 -0.11079597 C126.77177031 -0.10974731 128.18634532 -0.11212966 129.60090065 -0.11815643 C131.52875957 -0.12583935 133.45665829 -0.120049 135.38452148 -0.11352539 C136.46448584 -0.11407016 137.54445019 -0.11461493 138.65714073 -0.1151762 C141.31924438 0.13371277 141.31924438 0.13371277 144.31924438 2.13371277 C144.56924438 5.19621277 144.56924438 5.19621277 144.31924438 8.13371277 C143.31924438 9.13371277 143.31924438 9.13371277 140.86920834 9.2567606 C139.22242517 9.25537791 139.22242517 9.25537791 137.54237366 9.25396729 C136.28729004 9.25534195 135.03220642 9.25671661 133.73908997 9.25813293 C132.33538795 9.25459332 130.93168617 9.25095851 129.52798462 9.24723816 C128.05987551 9.24695629 126.59176626 9.24711401 125.12365723 9.24768066 C121.12589782 9.24796867 117.12816815 9.2420715 113.13041568 9.23510671 C108.95703706 9.22887362 104.78365783 9.22826941 100.61027527 9.2270813 C92.70191647 9.22396785 84.79357142 9.21575428 76.88521868 9.20573181 C67.88415944 9.19457109 58.88309956 9.18906033 49.88203514 9.18403637 C31.36109708 9.17357168 12.84017183 9.15597197 -5.68075562 9.13371277 C-7.04699236 6.40123929 -6.80918161 4.15172374 -6.68075562 1.13371277 C-4.91574718 -0.63129566 -2.39275165 0.00371557 0 0 Z " fill="#1BA7DF" transform="translate(28.680755615234375,122.86628723144531)"/>
<path d="M0 0 C48.84 0 97.68 0 148 0 C149.35439668 2.70879335 149.06501451 5.00933268 149 8 C146.31204839 9.3439758 144.2411578 9.12900675 141.23022461 9.13371277 C140.00189911 9.13797775 138.77357361 9.14224274 137.50802612 9.14663696 C136.1394653 9.14628742 134.7709045 9.14582588 133.40234375 9.14526367 C131.96688753 9.14825447 130.53143213 9.15165681 129.09597778 9.15544128 C125.1911235 9.16429254 121.28629111 9.16661984 117.38142776 9.16725707 C114.12573355 9.16820514 110.87004447 9.17188217 107.61435223 9.17542917 C99.93658375 9.18357764 92.25882699 9.186013 84.58105469 9.18530273 C76.65008855 9.1847015 68.71919033 9.19526155 60.78824139 9.2110464 C53.98737358 9.22410177 47.18652803 9.22948749 40.38564777 9.22884732 C36.32005236 9.22859179 32.2545173 9.23147348 28.18893433 9.24202538 C24.36733119 9.25167302 20.54584655 9.25180864 16.72423935 9.24450874 C15.31892602 9.2434588 13.91360543 9.2458499 12.5083046 9.2518692 C10.59547626 9.25953399 8.68260793 9.2537701 6.76977539 9.24723816 C5.16145592 9.24805531 5.16145592 9.24805531 3.52064514 9.24888897 C1 9 1 9 -1 7 C-0.67 4.69 -0.34 2.38 0 0 Z " fill="#1BA6DD" transform="translate(22,51)"/>
<path d="M0 0 C1.62327744 0.00276538 1.62327744 0.00276538 3.27934837 0.00558662 C4.51897835 0.0028373 5.75860832 0.00008797 7.03580284 -0.00274467 C8.41698361 0.00433407 9.79816341 0.0116037 11.17934227 0.01904488 C12.62789464 0.01960878 14.07644758 0.01929285 15.52499962 0.01815987 C19.46488793 0.01758452 23.40465521 0.02936818 27.34451532 0.04330778 C31.4591597 0.05578488 35.57380665 0.05698325 39.68846703 0.0593586 C47.48348167 0.06558227 55.27844042 0.08200505 63.07343042 0.10205758 C71.9463352 0.12438901 80.8192426 0.13540306 89.69216847 0.14544845 C107.94752766 0.16637054 126.20283477 0.20156371 144.45815086 0.24609566 C145.58315086 6.99609566 145.58315086 6.99609566 144.45815086 9.24609566 C125.32628352 9.29276586 106.19442768 9.32806002 87.06251526 9.34972 C78.17972603 9.36004332 69.29697212 9.37412375 60.41420555 9.39697456 C52.67419422 9.4168762 44.93420847 9.42980441 37.19417226 9.43427265 C33.09388653 9.43688552 28.99367397 9.44304865 24.89341164 9.45755577 C21.03737319 9.4710888 17.18143835 9.47532703 13.32537842 9.47231102 C11.90716235 9.47286311 10.48894297 9.476866 9.07074738 9.48450661 C7.14030627 9.49440039 5.20981009 9.49088619 3.27934837 9.48660469 C2.19716341 9.48844828 1.11497845 9.49029186 0 9.49219131 C-2.54184914 9.24609566 -2.54184914 9.24609566 -4.54184914 7.24609566 C-4.79184914 4.74609566 -4.79184914 4.74609566 -4.54184914 2.24609566 C-2.54184914 0.24609566 -2.54184914 0.24609566 0 0 Z " fill="#19A5DF" transform="translate(25.54184913635254,86.75390434265137)"/>
</svg>
